<?xml version="1.0" encoding="UTF-8"?>
<svg id="Layer_1" data-name="Layer 1" xmlns="http://www.w3.org/2000/svg" viewBox="0 0 571.95 194.91">
  <defs>
    <style>
      .cls-1 {
        fill: #769e49;
      }

      .cls-2 {
        fill: #4e5d33;
      }
    </style>
  </defs>
  <path class="cls-2" d="M419.84,194.91c.01-.58,.04-1.16,.04-1.73,0-33.59,0-67.18,0-100.77v-1.67h10.34c.36,3.07,.72,6.11,1.12,9.44,.54-.44,.9-.72,1.24-1.02,5.57-4.91,11.84-8.61,19.23-9.77,10.98-1.73,20.73,.7,27.99,9.76,3.75,4.68,5.71,10.21,6.72,16.06,1.56,9.11,1.47,18.16-1.52,27-3.29,9.71-9.26,17.18-18.88,21.22-10.92,4.59-21.04,2.43-30.5-4.17-.58-.41-1.16-.83-1.72-1.26-.52-.41-1.02-.84-1.8-1.49,0,.7,0,1.15,0,1.6,.09,12.05,.18,24.1,.27,36.16,0,.22,.02,.44,.04,.67h-12.56Zm12.52-66.34c0,5.69,.02,11.39-.02,17.08,0,.84,.21,1.42,.91,1.89,1.8,1.22,3.49,2.62,5.36,3.72,3.94,2.33,8.18,4.01,12.8,4.06,9.55,.11,16.12-4.62,19.99-13.1,3.72-8.17,3.86-16.77,2.29-25.46-.75-4.16-2.15-8.1-5.02-11.29-5.42-6.05-12.35-7.2-19.87-5.43-6.23,1.47-11.22,5.2-15.7,9.62-.41,.4-.7,1.12-.71,1.7-.05,5.74-.03,11.47-.03,17.21Z"/>
  <path class="cls-1" d="M0,122.56c.4-1.84,.73-3.7,1.21-5.51,3.71-14,12.97-22.58,26.64-26.44,10.03-2.83,20.05-2.64,29.71,1.84,3.71,1.72,8.35,5.06,10.08,7.25-2.01,2.6-4.04,5.22-6.08,7.86-1.75-1.28-3.38-2.57-5.1-3.72-11.23-7.47-26.88-5.86-36.24,3.8-4.06,4.19-6.23,9.35-7,15.09-.93,6.97-.11,13.68,3.47,19.84,4.32,7.46,11.06,11.32,19.43,12.58,9.8,1.47,18.32-1.57,26.01-7.48,.56-.43,1.12-.85,1.79-1.36,1.82,2.67,3.61,5.3,5.51,8.09-1.45,1.14-2.8,2.28-4.23,3.3-9.58,6.83-20.26,9.22-31.86,7.71-6.48-.84-12.55-2.84-17.98-6.55-8.45-5.77-13.13-13.89-14.82-23.86C.36,133.96,.18,132.93,0,131.9c0-3.12,0-6.23,0-9.35Z"/>
  <path class="cls-2" d="M543.81,.26c2.4,7.33,4.82,14.67,7.21,22.01,4.6,14.13,9.2,28.26,13.79,42.39,2.37,7.29,4.74,14.59,7.14,22-15.17,11.01-30.34,22.02-45.66,33.13-.93-2.82-1.82-5.53-2.71-8.25-4.6-14.13-9.19-28.26-13.78-42.4-1.67-5.15-3.33-10.3-5-15.44,.16-.36,.25-.77,.48-1.08,3.2-4.39,6.43-8.76,9.62-13.15,.88-1.2,1.67-2.47,2.5-3.7,.26,.35,.62,.67,.75,1.06,5.12,15.69,10.21,31.39,15.31,47.09,.73,2.24,1.49,4.48,2.28,6.85,5.14-3.74,10.13-7.36,15.11-10.97-6.73-20.7-13.42-41.29-20.12-61.87,.06-.17,.07-.36,.17-.5,3.61-4.96,7.21-9.93,10.85-14.87,.61-.83,1.37-1.53,2.07-2.3Z"/>
  <path class="cls-1" d="M543.81,.26c-.69,.76-1.46,1.47-2.07,2.3-3.64,4.94-7.24,9.91-10.85,14.87-.1,.14-.12,.33-.17,.5-21.42,0-42.84-.01-64.26-.05-.8,0-1.03,.32-1.25,1.01-1.08,3.43-2.23,6.83-3.35,10.25-.68,2.09-1.34,4.19-2.06,6.48h1.79c18.08,0,36.16,0,54.24,0,.52,0,1.05,.09,1.57,.14-.83,1.24-1.63,2.5-2.5,3.7-3.2,4.39-6.42,8.76-9.62,13.15-.23,.31-.32,.72-.48,1.08-.58-.03-1.15-.07-1.73-.07-22.08,0-44.17,0-66.25,0h-1.79C440.87,35.68,446.66,17.85,452.47,0c.51,0,.91,0,1.31,0,29.56,0,59.13,0,88.69,.01,.45,0,.89,.16,1.34,.25Z"/>
  <path class="cls-1" d="M232.42,163.92h-10.26c-.37-3.17-.73-6.27-1.12-9.66-1.7,1.46-3.13,2.76-4.65,3.96-4.71,3.72-9.9,6.55-15.92,7.31-12.86,1.61-25.44-3.64-31.21-16.64-5.92-13.32-6.29-27.04-.27-40.45,4.56-10.14,12.42-16.78,23.53-19.02,9.1-1.84,17.26,.48,24.55,6.1,1.08,.83,2.15,1.69,3.19,2.51V56.66h12.16v107.26Zm-12.38-37.68c0-5.74,.02-11.48-.04-17.22,0-.59-.38-1.34-.83-1.73-1.49-1.29-3.03-2.55-4.67-3.63-5.52-3.65-11.54-5.29-18.11-3.84-7.85,1.73-12.89,6.87-15.96,14.04-3.3,7.73-3.22,15.75-1.49,23.82,1.01,4.73,2.91,9.13,6.54,12.42,6.22,5.65,13.5,6.54,21.27,3.89,5.12-1.75,9.13-5.21,12.77-9.1,.34-.36,.48-1.03,.48-1.56,.03-5.7,.02-11.39,.02-17.09Z"/>
  <path class="cls-1" d="M261.28,130.38c.23,5.46,1.66,10.37,4.81,14.7,4.42,6.06,10.58,9.24,17.86,10.31,9.49,1.4,18.28-.73,26.46-5.62,.34-.21,.69-.4,1.04-.6,.03-.02,.08-.01,.29-.04,1.41,2.62,2.85,5.3,4.43,8.23-2.64,1.39-5.15,2.9-7.81,4.07-11.52,5.06-23.38,6.1-35.35,1.94-13.11-4.56-21.22-13.84-23.85-27.49-2.13-11.07-.56-21.64,5.96-31.09,6.19-8.97,14.85-14.13,25.63-15.59,7.57-1.03,14.95-.17,21.81,3.36,8.91,4.57,13.76,12.19,15.71,21.8,1.01,4.96,1.06,9.98,.52,15-.03,.3-.12,.6-.21,1.02h-57.29Zm46.39-8.99c-.2-1.9-.33-3.66-.58-5.4-1.31-9.02-6.86-14.92-15.69-16.74-12.55-2.59-24.38,3.95-28.74,15.97-.71,1.96-1.11,4.03-1.69,6.17h46.71Z"/>
  <path class="cls-1" d="M151.82,127.45c-.29,9.08-2.44,17.49-8.01,24.76-5.74,7.48-13.43,11.84-22.71,13.18-10.5,1.51-20.2-.64-28.62-7.3-7.12-5.63-11.14-13.17-12.73-21.99-1.5-8.32-1.08-16.58,2.02-24.52,4.81-12.34,13.84-19.78,26.86-22.13,9.31-1.68,18.18-.18,26.26,4.91,8.47,5.34,13.46,13.15,15.54,22.82,.72,3.37,.95,6.85,1.4,10.27Zm-59.94-.73c-.01,6.15,.96,11.3,3.04,15.62,3.66,7.61,9.56,12.31,18.13,13.03,9.07,.76,16.26-2.63,21.14-10.43,2.9-4.63,4.09-9.79,4.36-15.19,.35-6.79-.67-13.28-4-19.31-7.93-14.36-28.48-15.23-37.58-1.6-3.77,5.64-5,11.97-5.09,17.88Z"/>
  <path class="cls-2" d="M347.99,90.74c0,.63,0,1.16,0,1.69,0,13.88-.02,27.76,.01,41.64,0,3.64,.22,7.28,1.31,10.8,1.86,6.03,6.15,9.31,12.43,10.03,7.97,.92,14.47-1.9,20.08-7.25,1.8-1.72,3.5-3.55,5.14-5.41,.44-.5,.74-1.31,.74-1.99,.04-15.97,.03-31.94,.03-47.92,0-.52,0-1.04,0-1.61h12.25v73.15h-10.01c-.36-4.21-.73-8.46-1.08-12.57-1.76,1.62-3.46,3.16-5.14,4.73-5.01,4.66-10.63,8.27-17.51,9.31-7.67,1.17-15.11,.56-21.64-4.24-4.34-3.19-6.66-7.73-7.79-12.82-.77-3.44-1.3-7.01-1.33-10.53-.14-15.26-.06-30.52-.06-45.78,0-.39,.04-.78,.06-1.24h12.5Z"/>
</svg>